<svg width="30" height="30" viewBox="0 0 30 30" fill="none" xmlns="http://www.w3.org/2000/svg">
<g clip-path="url(#clip0_1_95)">
<path d="M0.9375 15C0.9375 17.7656 1.73437 20.3438 3.09375 22.5H26.8594C28.2187 20.3438 29.0156 17.7656 29.0156 15C29.0156 12.2344 28.2187 9.65625 26.8594 7.5H3.09375C1.73437 9.65625 0.9375 12.2344 0.9375 15Z" fill="#FFCE31"/>
<path d="M26.9063 7.5C24.4219 3.5625 20.0156 0.9375 15 0.9375C9.98437 0.9375 5.57813 3.5625 3.09375 7.5H26.9063ZM3.09375 22.5C5.57813 26.4375 9.98437 29.0625 15 29.0625C20.0156 29.0625 24.4219 26.4375 26.9063 22.5H3.09375Z" fill="#ED4C5C"/>
<path d="M4.3125 13.4531H5.8125V14.2969H4.3125V13.4531ZM4.3125 19.6406H5.85938V20.4375H4.3125V19.6406Z" fill="#C8B100"/>
<path d="M4.17188 18.3281C4.03125 18.4219 3.9375 18.5156 3.9375 18.5625C3.9375 18.6094 3.98438 18.6563 4.07813 18.7031C4.17188 18.75 4.26563 18.8438 4.21875 18.9375C4.3125 18.8438 4.35938 18.75 4.35938 18.6563C4.35938 18.5156 4.26563 18.375 4.17188 18.3281Z" fill="#ED4C5C"/>
<path d="M4.54688 14.2969H5.625V19.6406H4.54688V14.2969Z" fill="white"/>
<path d="M6.74998 16.2656C6.51561 16.1719 6.09373 16.0781 5.62498 16.0781C5.48436 16.0781 5.29686 16.0781 5.10936 16.125C4.45311 16.2188 3.93749 16.5 3.98436 16.6875L3.74999 16.1719C3.70311 15.9375 4.26561 15.6562 4.96874 15.5156C5.20311 15.4687 5.43748 15.4688 5.62498 15.4688C6.09373 15.4688 6.51561 15.5156 6.74998 15.6094V16.2656Z" fill="#ED4C5C"/>
<path d="M4.54687 16.9688C4.26562 16.9688 4.03125 16.875 4.03125 16.7344C4.03125 16.6406 4.125 16.5 4.3125 16.4062H4.59375L4.54687 16.9688ZM5.625 16.5469C5.8125 16.5937 5.95312 16.6406 6.04687 16.6875C6.09375 16.7344 5.90625 16.9219 5.625 17.0625V16.5469Z" fill="#ED4C5C"/>
<path d="M3.84373 18C3.79685 17.9063 4.12498 17.7188 4.54685 17.5781C4.73435 17.5313 4.87498 17.4375 5.10935 17.3438C5.67185 17.1094 6.1406 16.7813 6.04685 16.6875L6.1406 17.25C6.18748 17.3438 5.81248 17.625 5.24998 17.9063C5.06248 18 4.73435 18.1406 4.54685 18.1875C4.21873 18.2813 3.93748 18.4688 3.93748 18.5156L3.84373 18Z" fill="#ED4C5C"/>
<path d="M14.3906 13.4531H15.8906V14.2969H14.3906V13.4531ZM14.3438 19.6406H15.8906V20.4375H14.3438V19.6406Z" fill="#C8B100"/>
<path d="M16.0313 18.3281C16.1719 18.4219 16.2656 18.5156 16.2656 18.5625C16.2656 18.6094 16.2188 18.6563 16.125 18.7031C16.0313 18.7969 15.9375 18.9375 15.9844 18.9844C15.8906 18.8906 15.8438 18.7969 15.8438 18.7031C15.8438 18.5156 15.9375 18.375 16.0313 18.3281Z" fill="#ED4C5C"/>
<path d="M14.5781 14.2969H15.6563V19.6406H14.5781V14.2969Z" fill="white"/>
<path d="M13.4531 16.2656C13.6875 16.1719 14.1094 16.0781 14.5781 16.0781C14.7187 16.0781 14.9062 16.0781 15.0938 16.125C15.75 16.2188 16.2656 16.5 16.2187 16.6875L16.4531 16.125C16.5 15.8906 15.9375 15.6094 15.2344 15.4688H14.5781C14.1094 15.4688 13.6875 15.5156 13.4531 15.6094V16.2656Z" fill="#ED4C5C"/>
<path d="M15.6563 16.9688C15.9375 16.9688 16.1719 16.875 16.1719 16.7344C16.1719 16.6406 16.0781 16.5 15.8906 16.4062H15.6094L15.6563 16.9688ZM14.5781 16.5469C14.3906 16.5937 14.25 16.6406 14.1563 16.6875C14.1094 16.7344 14.2969 16.9219 14.5781 17.0625V16.5469Z" fill="#ED4C5C"/>
<path d="M16.3594 18C16.4063 17.9063 16.0781 17.7188 15.6563 17.5781C15.4688 17.5313 15.3281 17.4375 15.0938 17.3438C14.5313 17.1094 14.0625 16.7813 14.1563 16.6875L14.0625 17.25C14.0156 17.3438 14.3906 17.625 14.9531 17.9063C15.1406 18 15.4688 18.1406 15.6563 18.1875C15.9844 18.2813 16.2656 18.5156 16.2187 18.5625L16.3594 18ZM10.0781 10.4531C10.9687 10.4531 12.7969 10.6406 13.4531 11.2969C12.75 12.9844 11.625 12.2813 10.0781 12.2813C8.57812 12.2813 7.40625 12.9844 6.70312 11.2969C7.35937 10.6406 9.14062 10.4531 10.0781 10.4531Z" fill="#ED4C5C"/>
<path d="M12.375 12.3281C11.8125 12 10.9688 11.9531 10.0781 11.9531C9.1875 11.9531 8.34375 12.0469 7.78125 12.3281L7.96875 13.125C8.48438 13.2656 9.23438 13.3594 10.0781 13.3594C10.9219 13.3594 11.625 13.2656 12.1875 13.125L12.375 12.3281ZM13.1719 10.3125C12.9844 10.1719 12.6094 10.0312 12.2813 10.0312C12.1406 10.0312 12 10.0312 11.8594 10.0781C11.8594 10.0781 11.5781 9.70313 10.9219 9.70313C10.6875 9.70313 10.5 9.75 10.3125 9.84375V9.79687C10.2656 9.70312 10.1719 9.60938 10.0781 9.60938C9.98438 9.60938 9.84375 9.75 9.84375 9.84375V9.89063C9.65625 9.79688 9.46875 9.75 9.23438 9.75C8.57813 9.75 8.29688 10.1719 8.29688 10.125C8.15625 10.0781 8.01562 10.0781 7.875 10.0781C5.71875 10.0781 6.79688 11.5313 6.79688 11.5313L7.03125 11.25C6.51563 10.5938 6.98437 10.2187 7.92187 10.2187C8.0625 10.2187 8.15625 10.2187 8.25 10.2656C7.92188 10.7344 8.53125 11.1562 8.53125 11.1562L8.67188 10.9219C8.34375 10.6875 8.29688 9.89063 9.23438 9.89063C9.46875 9.89063 9.65625 9.9375 9.84375 10.0781C9.84375 10.125 9.79687 10.7813 9.75 10.875L10.125 11.2031L10.5 10.875C10.4531 10.7344 10.4063 10.125 10.4063 10.0781C10.5469 9.98437 10.7813 9.89063 11.0156 9.89063C12 9.89063 12 10.6875 11.5781 10.9219L11.7188 11.1562C11.7188 11.1562 12.2344 10.7344 12 10.2656C12.0938 10.2656 12.2344 10.2187 12.3281 10.2187C13.4531 10.2187 13.5 11.0625 13.2188 11.25L13.4063 11.5313C13.3125 11.5313 13.8281 10.875 13.1719 10.3125Z" fill="#C8B100"/>
<path d="M9.79688 9.42188C9.79688 9.28125 9.9375 9.14062 10.0781 9.14062C10.2656 9.14062 10.3594 9.28125 10.3594 9.42188C10.3594 9.5625 10.2188 9.70313 10.0781 9.70313C9.9375 9.70313 9.79688 9.5625 9.79688 9.42188Z" fill="#005BBF"/>
<path d="M9.98437 8.625V8.76563H9.84375V8.90625H9.98437V9.375H9.79688V9.51562H10.3594L10.4063 9.42188L10.3594 9.375H10.1719V8.90625H10.3125V8.76563H10.1719V8.625H9.98437Z" fill="#C8B100"/>
<path d="M10.0781 13.2656C9.32813 13.2656 8.67188 13.1719 8.15625 13.0312C8.67188 12.8906 9.32813 12.7969 10.0781 12.7969C10.8281 12.7969 11.4844 12.8906 12 13.0312C11.5313 13.1719 10.8281 13.2656 10.0781 13.2656Z" fill="#ED4C5C"/>
<path d="M10.125 21.375C9.23438 21.375 8.39062 21.1406 7.64062 20.8125C7.07812 20.5313 6.75 20.0156 6.75 19.4063V17.1562H13.5V19.4063C13.5 20.0156 13.125 20.5781 12.6094 20.8125C11.8594 21.1875 11.0156 21.375 10.125 21.375ZM10.0781 13.4062H13.4531V17.1562H10.0781V13.4062Z" fill="white"/>
<path d="M10.125 19.4063C10.125 20.2969 9.375 21 8.4375 21C7.5 21 6.75 20.2969 6.75 19.4063V17.1562H10.125V19.4063Z" fill="#ED4C5C"/>
<path d="M7.45312 20.7187C7.54687 20.7656 7.6875 20.8594 7.875 20.9062V17.0625H7.5L7.45312 20.7187ZM6.70312 19.3594C6.70312 19.8281 6.89063 20.2031 7.07813 20.3906V17.0625H6.70312V19.3594Z" fill="#C8B100"/>
<path d="M8.20312 21H8.57812V17.0625H8.20312V21Z" fill="#C7B500"/>
<path d="M8.95312 20.9062C9.09375 20.8594 9.28125 20.7656 9.375 20.7187V17.0625H9L8.95312 20.9062Z" fill="#C8B100"/>
<path d="M6.70312 13.4062H10.0781V17.1562H6.70312V13.4062Z" fill="#ED4C5C"/>
<path d="M9.75 20.3906C9.9375 20.25 10.0781 19.9219 10.125 19.5469V17.1094H9.75V20.3906Z" fill="#C8B100"/>
<path d="M13.5 17.1563V19.4063C13.5 20.2969 12.75 21 11.8125 21C10.875 21 10.125 20.2969 10.125 19.4063V17.1563H13.5ZM12.2813 14.0625C12.4219 14.3438 12.4219 15.0469 12 14.9063C12.0938 14.9532 12.1406 15.2813 12.2813 15.4688C12.5156 15.75 12.7969 15.5157 12.75 15.1875C12.6563 14.6719 12.7031 14.3438 12.7969 13.8282C12.7969 13.875 13.0313 13.875 13.125 13.7813C13.0781 13.9219 13.0313 14.1094 13.125 14.1094C13.0313 14.25 12.7969 14.4844 12.75 14.625C12.7031 14.9532 13.2188 15.5625 12.6563 15.7032C12.2813 15.7969 12.5156 16.0782 12.6563 16.2188C12.6563 16.2188 12.4687 16.8282 12.5625 16.7813C12.1875 16.9219 12.2813 16.5938 12.2813 16.5938C12.4688 16.0313 11.9531 15.9844 12 15.8907C11.5313 15.8438 12.0469 16.3125 11.625 16.3125C11.5312 16.3125 11.3438 16.4063 11.3438 16.4063C10.8281 16.3594 11.1094 15.8907 11.2969 15.9375C11.4375 15.9844 11.5781 16.2188 11.5781 15.8907C11.5781 15.8907 11.3438 15.5157 11.9531 15.5157C11.7188 15.5157 11.5781 15.3282 11.4844 15.0938C11.3906 15.1407 11.25 15.375 10.7344 15.4219C10.7344 15.4219 10.5937 14.9063 10.7344 15C10.9219 15.0938 11.0156 15.0938 11.2031 14.9063C11.1094 14.7657 10.5469 14.5782 10.6406 14.25C10.6406 14.1563 10.9219 14.0157 10.9219 14.0157C10.875 14.25 11.0156 14.4844 11.2969 14.4844C11.6719 14.5313 11.5313 14.3907 11.5781 14.2969C11.625 14.2032 11.9063 14.3438 11.8125 14.1094C11.8125 14.0625 11.4844 14.0157 11.5781 13.875C11.7656 13.6407 12.0469 13.8282 12.2813 14.0625ZM10.125 20.9063L10.0312 20.6719L10.125 20.3907L10.2187 20.6719L10.125 20.9063Z" fill="#ED4C5C"/>
<path d="M7.73438 14.2031V14.4375H7.82813V14.625H7.59375V15.0938H7.73438V16.125H7.45312V16.6406H9.375V16.125H9.14063V15.0938H9.23438V14.625H9V14.4375H9.14063V14.2031H8.67188V14.4375H8.76563V14.625H8.53125V14.0625H8.67188V13.8281H8.15625V14.0625H8.29688V14.625H8.0625V14.4375H8.15625V14.2031H7.73438ZM13.0313 19.9687V17.625H10.5938V19.9687L11.7188 20.4844H11.8594L13.0313 19.9687ZM11.7188 17.8125V18.6094L10.9219 17.8125H11.7188ZM10.7344 17.8594L11.6719 18.7969L10.7344 19.7344V17.8594ZM10.8281 19.9219L11.7188 19.0312V20.3438L10.8281 19.9219ZM11.8594 20.2969V18.9844L12.75 19.875L11.8594 20.2969ZM12.8438 19.7344L11.9063 18.7969L12.8438 17.8594V19.7344ZM11.8594 17.8125H12.6563L11.8594 18.6094V17.8125Z" fill="#C8B100"/>
<path d="M9 17.1094C9 16.4062 9.46875 15.8906 10.0781 15.8906C10.6875 15.8906 11.1562 16.4531 11.1562 17.1094C11.1562 17.7656 10.6875 18.3281 10.0781 18.3281C9.46875 18.3281 9 17.8125 9 17.1094Z" fill="#ED4C5C"/>
<path d="M9.32812 17.1094C9.32812 16.5938 9.65625 16.2188 10.0781 16.2188C10.5 16.2188 10.8281 16.6406 10.8281 17.1094C10.8281 17.625 10.5 18 10.0781 18C9.70313 18.0469 9.32812 17.625 9.32812 17.1094Z" fill="#005BBF"/>
<path d="M9.75 16.5L9.5625 17.0156L9.70313 17.0625L9.60938 17.25H9.89063L9.79687 17.0625L9.9375 17.0156L9.75 16.5ZM10.4531 16.5L10.2656 17.0156L10.4063 17.0625L10.3125 17.25H10.5938L10.5469 17.0625L10.6875 17.0156L10.4531 16.5ZM10.125 17.1094L9.89063 17.625L10.0312 17.6719L9.98437 17.8594H10.2187L10.1719 17.6719L10.3125 17.625L10.125 17.1094Z" fill="#C8B100"/>
</g>
<defs>
<clipPath id="clip0_1_95">
<rect width="30" height="30" fill="white"/>
</clipPath>
</defs>
</svg>
