<svg width="47" height="46" viewBox="0 0 47 46" fill="none" xmlns="http://www.w3.org/2000/svg">
<g opacity="0.2">
<path d="M42.1259 21.9873H31.4202C31.4202 24.0191 30.613 25.9677 29.1763 27.4044C27.7396 28.8411 25.791 29.6483 23.7592 29.6483C21.7274 29.6483 19.7788 28.8411 18.3421 27.4044C16.9054 25.9677 16.0982 24.0191 16.0982 21.9873H5.39257C4.5482 22.0071 3.74541 22.3581 3.15744 22.9644C2.56947 23.5707 2.24344 24.3839 2.2496 25.2285V40.6978C2.24344 41.5423 2.56947 42.3555 3.15744 42.9618C3.74541 43.5681 4.5482 43.9191 5.39257 43.9389H42.1259C42.9702 43.9191 43.773 43.5681 44.3609 42.9618C44.9489 42.3555 45.275 41.5423 45.2688 40.6978V25.2285C45.275 24.3839 44.9489 23.5707 44.3609 22.9644C43.773 22.3581 42.9702 22.0071 42.1259 21.9873Z" stroke="black" stroke-width="2.62009" stroke-miterlimit="10" stroke-linecap="round" stroke-linejoin="round"/>
<path d="M39.916 21.7908V10.9378C39.916 5.48671 40.8 2.19643 36.1346 2H11.8749C7.01313 2 7.5533 5.24118 7.5533 10.1521V22.0364" stroke="black" stroke-width="2.62009" stroke-miterlimit="10" stroke-linecap="round"/>
<path d="M14.9196 10.0539H14.7232C14.5804 10.0526 14.4437 9.99526 14.3426 9.89423C14.2416 9.7932 14.1843 9.65654 14.183 9.51367V9.31724C14.1843 9.17437 14.2416 9.03771 14.3426 8.93668C14.4437 8.83565 14.5804 8.77832 14.7232 8.77704H14.9196C15.0625 8.77832 15.1992 8.83565 15.3002 8.93668C15.4013 9.03771 15.4586 9.17437 15.4599 9.31724V9.51367C15.4586 9.65654 15.4013 9.7932 15.3002 9.89423C15.1992 9.99526 15.0625 10.0526 14.9196 10.0539Z" stroke="black" stroke-width="1.31004" stroke-miterlimit="10"/>
<path d="M17.7679 14.8174H17.5715C17.4286 14.8161 17.292 14.7588 17.191 14.6578C17.0899 14.5567 17.0326 14.4201 17.0313 14.2772V14.0808C17.0326 13.9379 17.0899 13.8013 17.191 13.7002C17.292 13.5992 17.4286 13.5419 17.5715 13.5406H17.7679C17.9108 13.5419 18.0475 13.5992 18.1485 13.7002C18.2495 13.8013 18.3068 13.9379 18.3081 14.0808V14.2772C18.3159 14.3501 18.3072 14.4237 18.2828 14.4927C18.2584 14.5618 18.2189 14.6245 18.1671 14.6763C18.1153 14.7281 18.0525 14.7677 17.9835 14.7921C17.9144 14.8165 17.8408 14.8252 17.7679 14.8174Z" stroke="black" stroke-width="1.31004" stroke-miterlimit="10"/>
<path d="M40.0142 10.2503L44.7778 23.2641" stroke="black" stroke-width="2.62009" stroke-miterlimit="10" stroke-linecap="round"/>
<path d="M2.69159 23.4114L7.40603 10.7414" stroke="black" stroke-width="2.62009" stroke-miterlimit="10" stroke-linecap="round"/>
<path d="M18.8483 9.41547H27.4423" stroke="black" stroke-width="2.62009" stroke-miterlimit="10" stroke-linecap="round"/>
<path d="M21.5002 14.179H30.0942" stroke="black" stroke-width="2.62009" stroke-miterlimit="10" stroke-linecap="round"/>
</g>
</svg>
