<svg width="52" height="48" viewBox="0 0 52 48" fill="none" xmlns="http://www.w3.org/2000/svg">
<g opacity="0.2">
<path d="M11.4721 15.3096H1.3401V47.736H11.4721V15.3096Z" fill="black"/>
<path d="M6.19289 0C2.45685 0 0 2.41625 0 5.62437C0 8.77158 2.37564 11.2487 6.05076 11.2487H6.13198C9.94924 11.2487 12.3249 8.75127 12.3046 5.62437C12.2234 2.41625 9.92893 0 6.19289 0Z" fill="black"/>
<path d="M39.1472 15.0051C33.3401 15.0051 29.7056 18.1726 29.0355 20.4061V15.3096H17.6447C17.7868 18.0101 17.6447 47.736 17.6447 47.736H29.0355V30.2132C29.0355 29.2183 28.9949 28.2436 29.2792 27.5533C30.0508 25.6041 31.736 23.5736 34.7614 23.5736C38.7208 23.5736 40.5076 26.5787 40.5076 30.9645V47.736H52V29.7056C52 19.6751 46.3553 15.0051 39.1472 15.0051Z" fill="black"/>
</g>
</svg>
