<svg width="271" height="58" viewBox="0 0 271 58" fill="none" xmlns="http://www.w3.org/2000/svg">
<path opacity="0.05" d="M2 2C15.3547 2 15.3547 56 28.7094 56C42.0641 56 42.0641 2 55.4188 2C68.7735 2 68.7735 56 82.0969 56C95.452 56 95.452 2 108.775 2C122.13 2 122.13 56 135.453 56C148.808 56 148.808 2 162.162 2C175.517 2 175.517 56 188.872 56C202.226 56 202.226 2 215.581 2C228.936 2 228.936 56 242.291 56C255.645 56 255.645 2 269 2" stroke="#4F4F4F" stroke-width="3" stroke-miterlimit="10" stroke-linecap="round"/>
</svg>
