<svg width="30" height="30" viewBox="0 0 30 30" fill="none" xmlns="http://www.w3.org/2000/svg">
<g clip-path="url(#clip0_1_161)">
<path d="M25.5613 25.5617H21.1162V18.6005C21.1162 16.9405 21.0866 14.8036 18.8043 14.8036C16.4892 14.8036 16.1349 16.6122 16.1349 18.4796V25.5613H11.69V11.2461H15.9572V13.2024H16.0169C16.444 12.4723 17.0611 11.8716 17.8025 11.4643C18.5439 11.0571 19.3819 10.8586 20.2272 10.89C24.7325 10.89 25.5631 13.8534 25.5631 17.7087L25.5613 25.5617ZM6.67438 9.28944C5.24973 9.28967 4.09461 8.1349 4.09438 6.71026C4.09414 5.28561 5.24879 4.13049 6.67344 4.13026C8.09809 4.1299 9.25321 5.28467 9.25344 6.70932C9.25357 7.39346 8.98192 8.04964 8.49825 8.5335C8.01459 9.01736 7.35852 9.28928 6.67438 9.28944ZM8.89696 25.5619H4.44723V11.2461H8.89684V25.5617L8.89696 25.5619ZM27.7773 0.00209187H2.21364C1.00543 -0.0115019 0.014613 0.95635 -0.000152588 2.16455V27.8348C0.0141443 29.0436 1.00485 30.0124 2.21352 29.9997H27.7773C28.9885 30.0147 29.9831 29.046 29.9998 27.8348V2.16256C29.9826 0.952014 28.9879 -0.0157206 27.7773 9.96847e-05" fill="#0A66C2"/>
</g>
<defs>
<clipPath id="clip0_1_161">
<rect width="30" height="30" fill="white"/>
</clipPath>
</defs>
</svg>
