<svg width="12" height="12" viewBox="0 0 12 12" fill="none" xmlns="http://www.w3.org/2000/svg">
<path d="M10.55 4.43747L6.35001 8.64997C6.30001 8.69997 6.24585 8.73547 6.18751 8.75647C6.12918 8.77747 6.06668 8.7878 6.00001 8.78747C5.93335 8.78747 5.87085 8.77713 5.81251 8.75647C5.75418 8.7358 5.70001 8.7003 5.65001 8.64997L1.43751 4.43747C1.32085 4.3208 1.26251 4.17497 1.26251 3.99997C1.26251 3.82497 1.32501 3.67497 1.45001 3.54997C1.57501 3.42497 1.72085 3.36247 1.88751 3.36247C2.05418 3.36247 2.20001 3.42497 2.32501 3.54997L6.00001 7.22497L9.67501 3.54997C9.79168 3.4333 9.93551 3.37497 10.1065 3.37497C10.2775 3.37497 10.4253 3.43747 10.55 3.56247C10.675 3.68747 10.7375 3.8333 10.7375 3.99997C10.7375 4.16663 10.675 4.31247 10.55 4.43747Z" fill="black"/>
</svg>
