<svg width="30" height="30" viewBox="0 0 30 30" fill="none" xmlns="http://www.w3.org/2000/svg">
<g clip-path="url(#clip0_1_142)">
<path d="M22.9688 0H7.03125C3.148 0 0 3.148 0 7.03125V22.9688C0 26.852 3.148 30 7.03125 30H22.9688C26.852 30 30 26.852 30 22.9688V7.03125C30 3.148 26.852 0 22.9688 0Z" fill="white"/>
<path d="M22.9688 0H7.03125C3.148 0 0 3.148 0 7.03125V22.9688C0 26.852 3.148 30 7.03125 30H22.9688C26.852 30 30 26.852 30 22.9688V7.03125C30 3.148 26.852 0 22.9688 0Z" fill="#1D9BF0"/>
<path d="M23.3873 10.7122C23.4002 10.8982 23.4002 11.0842 23.4002 11.2719C23.4002 16.9903 19.047 23.5854 11.0868 23.5854V23.5819C8.73518 23.5853 6.43231 22.9118 4.45312 21.6418C4.79508 21.683 5.13867 21.7035 5.4832 21.7043C7.43222 21.7058 9.32517 21.0521 10.8579 19.8482C9.95484 19.8311 9.0797 19.5322 8.35481 18.9934C7.62993 18.4546 7.09154 17.7027 6.81492 16.8429C7.46329 16.9679 8.13171 16.9424 8.76867 16.7684C6.74977 16.3604 5.29723 14.5866 5.29723 12.5264V12.4716C5.89909 12.8068 6.57267 12.9925 7.26129 13.0132C5.3598 11.7423 4.77363 9.21257 5.92184 7.23468C7.00832 8.57167 8.3639 9.66515 9.90053 10.4441C11.4372 11.223 13.1205 11.67 14.8411 11.756C14.6695 11.0175 14.6949 10.247 14.9146 9.52137C15.1343 8.79576 15.5406 8.14056 16.093 7.62128C17.8361 5.98277 20.5774 6.06679 22.2159 7.8089C23.1851 7.61756 24.1145 7.26227 24.9641 6.75832C24.641 7.76034 23.965 8.6109 23.0617 9.15175C23.9196 9.05068 24.7574 8.82104 25.5469 8.47054C24.9661 9.3403 24.2348 10.0993 23.3873 10.7122Z" fill="white"/>
</g>
<defs>
<clipPath id="clip0_1_142">
<rect width="30" height="30" fill="white"/>
</clipPath>
</defs>
</svg>
