<svg width="54" height="47" viewBox="0 0 54 47" fill="none" xmlns="http://www.w3.org/2000/svg">
<path opacity="0.2" fill-rule="evenodd" clip-rule="evenodd" d="M46.2329 11.2518C45.8263 11.5652 45.5976 12.0508 45.623 12.5584C45.6389 13.0128 45.6516 13.4671 45.6516 13.9277C45.6516 28.6418 35.1469 43.8666 17.5683 43.8666C14.1313 43.8666 10.7452 43.193 7.56233 41.8926C11.3995 41.266 15.0557 39.6053 18.1083 37.0705C18.6133 36.6475 18.8007 35.9644 18.5816 35.3503C18.3624 34.7361 17.7779 34.3194 17.114 34.3037C14.1504 34.2442 11.4662 32.5647 9.90342 29.9421C10.9739 29.9108 12.127 29.7447 12.991 29.4972C13.6898 29.2967 14.1599 28.6543 14.1377 27.9399C14.1123 27.2224 13.5977 26.6145 12.8861 26.461C9.73188 25.7873 7.40987 23.2211 6.62526 19.6961C7.5274 19.8747 8.37869 19.9311 8.84883 19.9437C9.54128 20.0189 10.1798 19.5426 10.4085 18.8878C10.634 18.236 10.4021 17.5122 9.83352 17.108C7.63858 15.5476 5.28797 12.6368 5.28797 9.16186C5.28797 8.30649 5.39597 7.46049 5.60243 6.64268C11.0914 12.6681 18.5816 16.3059 26.5228 16.7289C27.0564 16.7571 27.498 16.5503 27.8188 16.1805C28.1396 15.8108 28.2667 15.3095 28.165 14.8332C28.0062 14.122 27.9268 13.3856 27.9268 12.6399C27.9268 7.39782 31.8942 3.13335 36.7701 3.13335C39.2224 3.13335 41.5031 4.18301 43.1866 6.09437C43.5615 6.5205 44.1523 6.71789 44.7114 6.59882C45.5182 6.42961 46.3123 6.21655 47.0937 5.95648C46.6299 6.42021 46.1185 6.83383 45.5626 7.18789C44.9369 7.58581 44.6764 8.35348 44.9305 9.04281C45.1846 9.73214 45.9025 10.1489 46.6268 10.058C47.0397 10.0047 47.4495 9.94208 47.8561 9.86376C47.3415 10.3557 46.8015 10.8194 46.2329 11.2518ZM53.5928 5.7121C53.1227 5.19508 52.3667 5.05098 51.725 5.3455C51.6107 5.39877 51.4963 5.45203 51.3788 5.5053C51.8585 4.66555 52.2492 3.76628 52.5319 2.82316C52.7225 2.1965 52.4969 1.51968 51.9665 1.1249C51.4328 0.733221 50.7149 0.701899 50.1527 1.05596C48.5136 2.0931 46.7507 2.85448 44.9083 3.33388C42.707 1.20322 39.791 0 36.7701 0C30.144 0 24.7503 5.67134 24.7503 12.6399C24.7503 12.9031 24.7567 13.1663 24.7725 13.4264C17.6064 12.5114 10.9834 8.65427 6.37436 2.64768C6.05035 2.22469 5.52624 2.00848 4.98942 2.03356C4.44941 2.07429 3.96659 2.38135 3.70927 2.85135C2.66423 4.76267 2.11151 6.94661 2.11151 9.16189C2.11151 11.5652 2.91834 13.7397 4.0873 15.5633C3.54094 15.8139 3.15974 16.356 3.15974 16.9889V17.1331C3.15974 21.0121 4.56059 24.3992 6.91436 26.6897C6.66025 26.7712 6.42836 26.9185 6.24096 27.1158C6.05523 27.3156 5.92513 27.5595 5.86333 27.8236C5.80154 28.0877 5.81016 28.3631 5.88835 28.623C7.03507 32.4237 9.76366 35.3409 13.1562 36.6631C9.70015 38.5932 5.59928 39.3578 1.78115 38.9035C1.03468 38.7938 0.361255 39.2324 0.103966 39.903C-0.156501 40.5767 0.0849256 41.3412 0.688435 41.7485C5.74224 45.1827 11.5806 47 17.5683 47C37.1354 47 48.8281 30.1834 48.8281 13.9277C48.8281 13.6896 48.8249 13.4545 48.8186 13.2196C50.7467 11.6341 52.4048 9.74155 53.7612 7.58581C54.1329 6.99363 54.0661 6.22909 53.5928 5.7121Z" fill="black"/>
</svg>
