<svg width="16" height="15" viewBox="0 0 16 15" fill="none" xmlns="http://www.w3.org/2000/svg">
<path d="M15.7262 5.10495L8.34154 0.105091C8.24041 0.0365682 8.12157 0 8 0C7.87843 0 7.75959 0.0365682 7.65846 0.105091L0.273846 5.10495C0.189547 5.16208 0.120442 5.23946 0.0726691 5.33022C0.0248963 5.42099 -6.56915e-05 5.52233 1.29834e-07 5.62525V13.75C1.29834e-07 14.0815 0.12967 14.3995 0.360484 14.6339C0.591298 14.8683 0.904349 15 1.23077 15H14.7692C15.0957 15 15.4087 14.8683 15.6395 14.6339C15.8703 14.3995 16 14.0815 16 13.75V5.62525C16.0001 5.52233 15.9751 5.42099 15.9273 5.33022C15.8796 5.23946 15.8105 5.16208 15.7262 5.10495ZM8 1.37615L14.3008 5.64244L9.14692 9.37515H6.85462L1.70077 5.64244L8 1.37615ZM1.23077 13.75V6.8385L6.3 10.5103C6.40437 10.586 6.52943 10.6267 6.65769 10.6267H9.34231C9.47057 10.6267 9.59563 10.586 9.7 10.5103L14.7692 6.8385V13.75H1.23077Z" fill="white"/>
</svg>
