<svg width="53" height="42" viewBox="0 0 53 42" fill="none" xmlns="http://www.w3.org/2000/svg">
<path opacity="0.2" d="M20.23 0L18.7651 0.175781C18.7651 0.175781 12.1953 0.893556 7.39795 4.74609H7.33936L7.28076 4.80469C6.2041 5.79346 5.73535 7.00928 4.99561 8.78906C4.25586 10.5688 3.46484 12.8394 2.76904 15.3516C1.37744 20.3833 0.249512 26.4771 0.249512 32.0508V32.5195L0.483887 32.9883C2.21973 36.0352 5.30322 37.9761 8.15967 39.3164C11.0161 40.6567 13.4844 41.3672 15.1909 41.4258L16.3042 41.4844L16.8901 40.4883L18.9409 36.8555C21.1162 37.3462 23.6211 37.6758 26.4995 37.6758C29.3779 37.6758 31.8828 37.3462 34.0581 36.8555L36.1089 40.4883L36.6948 41.4844L37.8081 41.4258C39.5146 41.3672 41.9829 40.6567 44.8394 39.3164C47.6958 37.9761 50.7793 36.0352 52.5151 32.9883L52.7495 32.5195V32.0508C52.7495 26.4771 51.6216 20.3833 50.23 15.3516C49.5342 12.8394 48.7432 10.5688 48.0034 8.78906C47.2637 7.00928 46.7949 5.79346 45.7183 4.80469L45.6597 4.74609H45.6011C40.8037 0.893556 34.2339 0.175781 34.2339 0.175781L32.769 0L32.2417 1.34766C32.2417 1.34766 31.6997 2.71729 31.3628 4.27734C29.2388 3.9917 27.5029 3.92578 26.4995 3.92578C25.4961 3.92578 23.7603 3.9917 21.6362 4.27734C21.2993 2.71729 20.7573 1.34766 20.7573 1.34766L20.23 0ZM17.6519 4.27734C17.7324 4.54102 17.813 4.76807 17.8862 4.98047C15.4619 5.58106 12.8765 6.49658 10.5034 7.96875L12.4956 11.1328C17.3589 8.11523 24.3462 7.67578 26.4995 7.67578C28.6528 7.67578 35.6401 8.11523 40.5034 11.1328L42.4956 7.96875C40.1226 6.49658 37.5371 5.58106 35.1128 4.98047C35.186 4.76807 35.2666 4.54102 35.3472 4.27734C37.0977 4.62891 40.4375 5.43457 43.1987 7.61719C43.1841 7.62451 43.9019 8.7085 44.5464 10.2539C45.2056 11.8433 45.938 13.96 46.5972 16.3477C47.8643 20.9253 48.8604 26.499 48.9409 31.4062C47.7617 33.208 45.5718 34.834 43.2573 35.918C41.2358 36.8628 39.6392 37.207 38.687 37.3828L37.7495 35.8008C38.3062 35.5957 38.8555 35.3687 39.3315 35.1562C42.2173 33.8892 43.7847 32.5195 43.7847 32.5195L41.3237 29.707C41.3237 29.707 40.269 30.6738 37.8081 31.7578C35.3472 32.8418 31.5898 33.9258 26.4995 33.9258C21.4092 33.9258 17.6519 32.8418 15.1909 31.7578C12.73 30.6738 11.6753 29.707 11.6753 29.707L9.21436 32.5195C9.21436 32.5195 10.7817 33.8892 13.6675 35.1562C14.1436 35.3687 14.6929 35.5957 15.2495 35.8008L14.312 37.3828C13.3599 37.207 11.7632 36.8628 9.7417 35.918C7.42725 34.834 5.2373 33.208 4.05811 31.4062C4.13867 26.499 5.13477 20.9253 6.40186 16.3477C7.06104 13.96 7.79346 11.8433 8.45264 10.2539C9.09717 8.7085 9.81494 7.62451 9.80029 7.61719C12.5615 5.43457 15.9014 4.62891 17.6519 4.27734ZM19.937 17.0508C18.4868 17.0508 17.2051 17.8784 16.4214 18.9258C15.6377 19.9731 15.2495 21.2622 15.2495 22.6758C15.2495 24.0894 15.6377 25.3784 16.4214 26.4258C17.2051 27.4731 18.4868 28.3008 19.937 28.3008C21.3872 28.3008 22.6689 27.4731 23.4526 26.4258C24.2363 25.3784 24.6245 24.0894 24.6245 22.6758C24.6245 21.2622 24.2363 19.9731 23.4526 18.9258C22.6689 17.8784 21.3872 17.0508 19.937 17.0508ZM33.062 17.0508C31.6118 17.0508 30.3301 17.8784 29.5464 18.9258C28.7627 19.9731 28.3745 21.2622 28.3745 22.6758C28.3745 24.0894 28.7627 25.3784 29.5464 26.4258C30.3301 27.4731 31.6118 28.3008 33.062 28.3008C34.5122 28.3008 35.7939 27.4731 36.5776 26.4258C37.3613 25.3784 37.7495 24.0894 37.7495 22.6758C37.7495 21.2622 37.3613 19.9731 36.5776 18.9258C35.7939 17.8784 34.5122 17.0508 33.062 17.0508ZM19.937 20.8008C20.0396 20.8008 20.1714 20.8374 20.4058 21.1523C20.6401 21.4673 20.8745 22.0166 20.8745 22.6758C20.8745 23.335 20.6401 23.8843 20.4058 24.1992C20.1714 24.5142 20.0396 24.5508 19.937 24.5508C19.8345 24.5508 19.7026 24.5142 19.4683 24.1992C19.2339 23.8843 18.9995 23.335 18.9995 22.6758C18.9995 22.0166 19.2339 21.4673 19.4683 21.1523C19.7026 20.8374 19.8345 20.8008 19.937 20.8008ZM33.062 20.8008C33.1646 20.8008 33.2964 20.8374 33.5308 21.1523C33.7651 21.4673 33.9995 22.0166 33.9995 22.6758C33.9995 23.335 33.7651 23.8843 33.5308 24.1992C33.2964 24.5142 33.1646 24.5508 33.062 24.5508C32.9595 24.5508 32.8276 24.5142 32.5933 24.1992C32.3589 23.8843 32.1245 23.335 32.1245 22.6758C32.1245 22.0166 32.3589 21.4673 32.5933 21.1523C32.8276 20.8374 32.9595 20.8008 33.062 20.8008Z" fill="black"/>
</svg>
