<svg width="49" height="44" viewBox="0 0 49 44" fill="none" xmlns="http://www.w3.org/2000/svg">
<path opacity="0.2" d="M45.1314 0.00407785C44.5015 0.0333747 43.9083 0.21648 43.3809 0.421558H43.3736C42.8389 0.63396 40.2974 1.7033 36.4376 3.32195C32.5777 4.94793 27.5679 7.0573 22.5948 9.15203C12.6631 13.3342 2.89996 17.4504 2.89996 17.4504L3.01715 17.4064C3.01715 17.4064 2.34332 17.6261 1.6402 18.1095C1.28131 18.3439 0.885803 18.6662 0.541566 19.1716C0.197327 19.6769 -0.0809941 20.4533 0.0215459 21.2516C0.190003 22.6066 1.06891 23.4196 1.69879 23.8664C2.336 24.3205 2.94391 24.5329 2.94391 24.5329H2.95856L12.1138 27.6164C12.524 28.9347 14.9044 36.757 15.4756 38.5588C15.8126 39.6354 16.1422 40.3093 16.5523 40.8219C16.7501 41.0856 16.9844 41.3053 17.2628 41.4811C17.3726 41.547 17.4898 41.5983 17.607 41.6423C17.6436 41.6642 17.6802 41.6716 17.7242 41.6789L17.629 41.6569C17.6583 41.6642 17.6802 41.6862 17.7022 41.6935C17.7755 41.7155 17.8267 41.7228 17.9219 41.7375C19.3721 42.1769 20.5367 41.276 20.5367 41.276L20.6026 41.2248L26.0079 36.3029L35.0679 43.2536L35.273 43.3415C37.1627 44.1691 39.0743 43.7077 40.085 42.8947C41.1031 42.0744 41.4986 41.027 41.4986 41.027L41.5645 40.8586L48.5665 4.99187C48.7642 4.10564 48.8155 3.278 48.5958 2.47234C48.376 1.66668 47.8121 0.912281 47.1309 0.509448C46.4424 0.0992922 45.7613 -0.025219 45.1314 0.00407785ZM44.941 3.84929C44.9337 3.96648 44.9556 3.95183 44.9044 4.17888V4.20085L37.9683 39.694C37.939 39.7453 37.8878 39.8552 37.7486 39.965C37.6021 40.0822 37.4849 40.1554 36.877 39.9137L25.7955 31.4177L19.1011 37.5187L20.5074 28.5392C20.5074 28.5392 37.8658 12.36 38.6129 11.6642C39.3599 10.9684 39.1109 10.8219 39.1109 10.8219C39.1622 9.97234 37.983 10.5729 37.983 10.5729L15.1534 24.716L15.1461 24.6794L4.20368 20.9953V20.988C4.19635 20.988 4.1817 20.9806 4.17438 20.9806C4.1817 20.9806 4.23297 20.9587 4.23297 20.9587L4.29157 20.9294L4.35016 20.9074C4.35016 20.9074 14.1207 16.7912 24.0523 12.6091C29.0255 10.5143 34.0352 8.40496 37.8878 6.77898C41.7403 5.16033 44.5894 3.9738 44.7506 3.90789C44.9044 3.84929 44.8311 3.84929 44.941 3.84929Z" fill="black"/>
</svg>
